<?xml version="1.0" encoding="iso-8859-1"?>
<!-- Generator: Adobe Illustrator 19.0.0, SVG Export Plug-In . SVG Version: 6.00 Build 0)  -->
<svg version="1.1" id="Capa_1" xmlns="http://www.w3.org/2000/svg" xmlns:xlink="http://www.w3.org/1999/xlink" x="0px" y="0px"
	 viewBox="0 0 480 480" style="enable-background:new 0 0 480 480;" xml:space="preserve">
<g>
	<g>
		<path d="M400,122.404v-16h16v-16H304v16h16v16H160v-16h16v-16H64v16h16v16H0v48h16v272h16v32h416v-32h16v-272h16v-48H400z
			 M336,106.404h48v16h-48V106.404z M96,106.404h48v16H96V106.404z M432,458.404H48v-16h384V458.404z M448,426.404H32v-168h416
			V426.404z M448,242.404H32v-72h416V242.404z M464,154.404H16v-16h448V154.404z"/>
	</g>
</g>
<g>
	<g>
		<path d="M120,178.404c-13.255,0-24,10.745-24,24s10.745,24,24,24s24-10.745,24-24S133.255,178.404,120,178.404z M120,210.404
			c-4.418,0-8-3.582-8-8s3.582-8,8-8s8,3.582,8,8S124.418,210.404,120,210.404z"/>
	</g>
</g>
<g>
	<g>
		<path d="M360,178.404c-13.255,0-24,10.745-24,24s10.745,24,24,24s24-10.745,24-24S373.255,178.404,360,178.404z M360,210.404
			c-4.418,0-8-3.582-8-8s3.582-8,8-8s8,3.582,8,8S364.418,210.404,360,210.404z"/>
	</g>
</g>
<g>
	<g>
		<path d="M56,274.404v144h368v-144H56z M408,402.404H72v-112h336V402.404z"/>
	</g>
</g>
<g>
	<g>
		<rect x="376" y="306.404" width="16" height="16"/>
	</g>
</g>
<g>
	<g>
		<rect x="352" y="306.404" width="16" height="16"/>
	</g>
</g>
<g>
	<g>
		<rect x="376" y="330.404" width="16" height="16"/>
	</g>
</g>
<g>
	<g>
		<polygon points="146,31.716 158.4,15.212 145.6,5.596 126,31.708 142,53.06 129.6,69.604 142.4,79.204 162,53.06 		"/>
	</g>
</g>
<g>
	<g>
		<polygon points="106,31.716 118.4,15.212 105.6,5.596 86,31.708 102,53.06 89.6,69.604 102.4,79.204 122,53.06 		"/>
	</g>
</g>
<g>
	<g>
		<polygon points="338,31.716 350.4,15.212 337.6,5.596 318,31.708 334,53.06 321.6,69.604 334.4,79.204 354,53.06 		"/>
	</g>
</g>
<g>
	<g>
		<polygon points="378,31.716 390.4,15.212 377.6,5.596 358,31.708 374,53.06 361.6,69.604 374.4,79.204 394,53.06 		"/>
	</g>
</g>
<g>
</g>
<g>
</g>
<g>
</g>
<g>
</g>
<g>
</g>
<g>
</g>
<g>
</g>
<g>
</g>
<g>
</g>
<g>
</g>
<g>
</g>
<g>
</g>
<g>
</g>
<g>
</g>
<g>
</g>
</svg>
